<svg xmlns="http://www.w3.org/2000/svg" version="1.0" width="5942.000000pt" height="11250.000000pt" viewBox="0 0 5942.000000 11250.000000" preserveAspectRatio="xMidYMid meet">

<g transform="translate(0.000000,11250.000000) scale(0.100000,-0.100000)" fill="#b13967" stroke="none">
<path d="M31125 112400 c-99 -55 -216 -112 -260 -126 -44 -15 -168 -66 -275 -114 -335 -151 -312 -143 -435 -148 -78 -3 -133 0 -187 11 -68 15 -90 15 -200 2 -152 -18 -371 -73 -435 -110 -171 -98 -270 -227 -353 -460 -74 -210 -117 -279 -210 -337 -129 -82 -344 -148 -484 -148 -111 0 -257 -26 -317 -56 -70 -35 -116 -94 -124 -159 -8 -59 4 -109 36 -149 103 -131 36 -291 -172 -412 -86 -51 -317 -223 -554 -414 -66 -53 -159 -124 -206 -158 -180 -128 -281 -251 -419 -512 -38 -72 -94 -167 -124 -211 -61 -87 -106 -199 -106 -259 0 -45 -26 -117 -68 -186 -16 -27 -39 -83 -52 -124 -24 -80 -60 -276 -60 -326 0 -16 -15 -67 -33 -111 -26 -65 -46 -96 -96 -148 -35 -36 -82 -75 -105 -87 -86 -44 -143 -97 -217 -200 -80 -112 -123 -214 -159 -378 -23 -107 -31 -127 -102 -228 -51 -72 -58 -88 -58 -130 0 -121 8 -143 87 -248 144 -190 159 -226 138 -320 -19 -86 -63 -209 -89 -246 -37 -55 -181 -299 -214 -363 -235 -454 -380 -773 -418 -920 -27 -102 -113 -274 -201 -400 -70 -101 -94 -128 -150 -165 -103 -69 -224 -194 -257 -265 -16 -33 -43 -85 -62 -115 -18 -30 -69 -143 -115 -250 -92 -220 -177 -367 -333 -573 -208 -277 -245 -316 -455 -479 -201 -157 -426 -301 -496 -318 -69 -17 -128 -52 -197 -118 -50 -48 -68 -72 -73 -100 -4 -20 -27 -68 -53 -105 -37 -54 -69 -85 -165 -155 -65 -48 -143 -101 -173 -118 -30 -17 -81 -56 -112 -86 -77 -76 -174 -128 -237 -128 -168 0 -261 -52 -430 -239 -124 -137 -125 -138 -232 -391 -43 -102 -99 -223 -125 -270 -27 -47 -48 -95 -48 -108 0 -47 23 -113 50 -142 23 -25 36 -30 75 -30 82 0 186 29 230 65 22 18 72 53 110 78 39 25 97 74 130 108 58 60 155 117 226 133 71 16 101 -85 58 -191 -50 -125 -174 -284 -312 -400 -51 -43 -115 -100 -144 -126 -49 -47 -59 -51 -194 -88 -78 -21 -163 -51 -188 -65 -25 -14 -79 -39 -119 -55 -170 -68 -272 -136 -384 -258 -47 -50 -70 -67 -125 -87 -45 -17 -78 -38 -100 -62 -44 -48 -161 -290 -203 -417 -66 -201 -86 -235 -230 -390 -42 -45 -50 -61 -73 -152 -15 -56 -27 -122 -27 -146 0 -91 -7 -103 -99 -175 -47 -37 -115 -96 -151 -132 -59 -59 -114 -105 -304 -253 -33 -26 -117 -80 -186 -119 -68 -40 -190 -122 -270 -182 -226 -172 -557 -337 -795 -397 -83 -21 -140 -42 -185 -68 -36 -21 -96 -54 -135 -74 -38 -19 -110 -58 -160 -87 -50 -29 -195 -94 -328 -145 -230 -90 -240 -96 -330 -167 -50 -41 -142 -122 -202 -179 -123 -115 -298 -255 -448 -356 -149 -100 -150 -101 -160 -302 l-9 -166 -66 -100 c-66 -99 -100 -169 -101 -213 -3 -74 108 -233 183 -263 17 -7 49 -25 71 -39 43 -29 177 -82 235 -95 44 -9 95 -56 124 -115 28 -55 35 -86 46 -220 5 -58 16 -127 25 -155 29 -87 205 -425 260 -500 31 -41 86 -142 133 -242 43 -93 123 -250 177 -349 247 -453 330 -561 493 -647 74 -40 127 -90 194 -187 64 -92 91 -150 121 -265 15 -55 40 -149 56 -210 16 -60 32 -144 35 -186 9 -108 73 -291 140 -404 30 -49 92 -144 138 -210 47 -66 106 -158 132 -205 26 -47 81 -128 122 -180 122 -154 229 -408 241 -576 5 -61 2 -84 -17 -136 -38 -106 -69 -158 -145 -244 -71 -79 -128 -175 -155 -259 -22 -68 -67 -149 -102 -182 -29 -28 -44 -33 -112 -42 -87 -10 -88 -10 -290 63 -142 51 -254 47 -463 -20 -75 -24 -86 -30 -116 -73 -76 -107 -97 -230 -55 -332 29 -70 88 -159 158 -234 64 -70 162 -191 177 -220 23 -46 46 -206 40 -288 -5 -79 -47 -229 -82 -297 -18 -35 -95 -113 -248 -250 l-117 -105 -49 -115 c-27 -63 -52 -131 -56 -150 -12 -55 -78 -201 -125 -276 -55 -88 -73 -110 -178 -217 -99 -101 -180 -151 -286 -176 -79 -19 -154 -69 -197 -130 -13 -19 -47 -60 -75 -90 -30 -33 -73 -99 -104 -159 -53 -105 -172 -270 -213 -297 -13 -8 -50 -18 -83 -21 -69 -7 -141 9 -398 92 -271 87 -465 121 -634 110 -96 -6 -106 -9 -150 -41 -94 -67 -153 -169 -178 -308 -18 -96 -40 -160 -90 -259 -85 -168 -146 -227 -295 -285 -138 -54 -359 -216 -415 -304 -40 -64 -45 -110 -22 -192 29 -101 52 -134 213 -297 160 -161 240 -275 276 -389 17 -57 18 -72 8 -116 -7 -27 -24 -68 -39 -90 -47 -69 -71 -125 -95 -219 -29 -118 -54 -165 -143 -268 -91 -105 -143 -190 -225 -361 -84 -176 -136 -334 -191 -587 -63 -284 -62 -272 -36 -391 40 -184 83 -240 240 -319 81 -40 111 -47 363 -85 155 -22 172 -27 208 -56 32 -25 43 -43 60 -100 26 -85 20 -158 -19 -265 -27 -70 -31 -75 -249 -285 -121 -118 -253 -250 -291 -295 -114 -130 -182 -309 -182 -479 0 -75 17 -122 52 -148 17 -12 48 -47 70 -77 21 -30 59 -82 83 -115 86 -115 145 -403 145 -702 0 -160 -68 -294 -156 -308 -22 -3 -74 -22 -115 -43 -66 -33 -75 -41 -87 -77 -32 -97 20 -351 95 -460 50 -74 85 -184 147 -466 59 -265 59 -306 6 -543 -56 -250 -56 -306 7 -456 43 -104 53 -120 137 -209 114 -121 244 -213 333 -236 35 -8 100 -29 145 -44 46 -16 127 -36 180 -44 83 -14 109 -14 186 -2 131 19 215 63 416 213 222 166 250 185 349 233 77 36 93 40 189 46 389 22 1011 -136 1246 -316 116 -89 159 -133 428 -431 230 -256 366 -400 634 -675 141 -144 167 -195 205 -400 27 -146 27 -154 16 -305 -33 -465 -35 -722 -8 -870 25 -131 36 -330 47 -850 9 -422 9 -450 -10 -535 -85 -397 -166 -746 -183 -787 -32 -76 -67 -220 -67 -275 -1 -32 -7 -87 -15 -123 -19 -84 -18 -136 1 -267 21 -147 48 -247 90 -344 51 -115 124 -346 124 -391 0 -20 6 -67 14 -105 8 -37 24 -124 36 -193 21 -125 60 -271 86 -322 7 -14 30 -36 49 -48 20 -12 62 -44 93 -71 33 -28 76 -55 103 -63 90 -27 224 -111 314 -197 94 -89 264 -217 337 -255 170 -86 261 -103 400 -73 130 28 356 103 508 170 250 108 429 131 600 77 47 -15 108 -42 135 -61 28 -18 140 -80 250 -136 290 -149 379 -205 483 -305 42 -40 76 -85 99 -131 20 -38 53 -98 75 -132 43 -68 177 -349 283 -594 127 -291 254 -771 290 -1089 18 -161 65 -435 94 -548 26 -97 88 -201 176 -292 40 -41 144 -163 231 -270 197 -244 370 -437 460 -514 38 -33 92 -81 119 -107 96 -91 237 -161 382 -188 142 -28 282 -66 333 -91 30 -15 78 -35 105 -46 28 -10 75 -39 105 -65 30 -25 95 -74 145 -108 76 -53 104 -80 189 -189 54 -70 131 -165 171 -212 39 -47 93 -114 120 -150 27 -36 92 -119 144 -185 195 -244 374 -616 480 -990 37 -134 77 -237 130 -342 22 -44 51 -118 64 -164 19 -65 46 -119 114 -229 49 -80 108 -179 131 -220 64 -117 144 -207 209 -237 77 -35 271 -152 449 -270 85 -56 192 -117 249 -142 196 -85 371 -170 451 -217 234 -141 467 -298 558 -375 56 -48 126 -99 155 -114 61 -31 273 -228 338 -314 60 -80 153 -248 208 -376 67 -156 131 -280 181 -351 53 -75 80 -141 89 -219 9 -72 70 -239 114 -314 33 -55 78 -100 205 -203 75 -62 150 -104 288 -163 75 -32 93 -44 127 -88 22 -29 88 -95 147 -147 142 -126 129 -112 211 -220 162 -215 229 -376 239 -576 7 -116 6 -124 -21 -194 -69 -182 -134 -300 -208 -382 -77 -86 -374 -332 -497 -412 -111 -73 -159 -86 -309 -86 -132 0 -329 -20 -371 -38 -14 -6 -68 -28 -120 -48 -102 -40 -215 -110 -295 -184 -27 -26 -77 -67 -110 -92 -34 -25 -67 -54 -75 -63 -25 -31 -163 -129 -215 -153 -69 -33 -184 -40 -301 -18 -126 23 -166 37 -292 100 -233 117 -413 176 -534 176 -64 0 -97 -7 -195 -41 -96 -33 -126 -49 -161 -83 -92 -87 -202 -263 -226 -361 -10 -38 -35 -111 -56 -162 -26 -63 -42 -120 -50 -184 -18 -141 -51 -239 -97 -298 -67 -84 -191 -174 -344 -251 -169 -85 -290 -198 -407 -380 -34 -52 -94 -127 -134 -167 -67 -66 -85 -77 -220 -137 -81 -36 -151 -66 -154 -66 -3 0 -68 -29 -143 -64 -75 -35 -225 -94 -333 -130 -109 -37 -235 -82 -280 -102 -94 -40 -131 -52 -284 -93 -60 -16 -161 -45 -225 -64 -100 -31 -144 -38 -305 -51 -104 -9 -220 -13 -259 -10 -96 8 -235 -23 -324 -72 -36 -21 -244 -155 -462 -300 -272 -180 -439 -284 -535 -332 -233 -117 -361 -200 -552 -360 -98 -81 -194 -161 -214 -177 -41 -33 -230 -246 -354 -400 -45 -55 -112 -127 -150 -161 -73 -65 -372 -289 -489 -368 -127 -85 -306 -163 -602 -262 -408 -135 -510 -190 -669 -361 -56 -60 -113 -132 -128 -161 -14 -28 -46 -82 -69 -119 -24 -38 -51 -97 -61 -133 -9 -36 -61 -152 -114 -258 -87 -173 -106 -203 -180 -285 -45 -51 -104 -117 -129 -147 -50 -58 -142 -141 -282 -254 -108 -86 -282 -170 -469 -226 -265 -80 -489 -153 -652 -213 -180 -66 -299 -136 -578 -335 -142 -102 -367 -320 -417 -405 -55 -95 -97 -220 -122 -367 l-25 -145 21 -265 c28 -341 83 -633 166 -883 71 -214 85 -277 85 -407 0 -170 -53 -450 -109 -578 -95 -215 -319 -490 -502 -615 -61 -41 -219 -87 -379 -108 -99 -14 -493 -6 -610 11 -93 14 -263 14 -344 0 -87 -15 -175 -49 -221 -85 -22 -17 -71 -51 -108 -75 -43 -29 -77 -60 -92 -86 -13 -22 -82 -95 -152 -160 -357 -334 -557 -471 -908 -622 -390 -167 -644 -248 -990 -316 -71 -14 -177 -39 -235 -56 -423 -123 -584 -155 -908 -179 -113 -9 -136 -8 -300 19 -97 15 -249 42 -337 59 -420 82 -735 80 -1033 -5 -201 -57 -346 -123 -572 -257 -241 -143 -439 -296 -583 -449 -161 -170 -636 -555 -1250 -1013 -281 -209 -512 -385 -514 -391 -2 -6 66 -74 152 -150 l156 -139 -83 -39 c-46 -22 -163 -74 -260 -116 -155 -67 -281 -135 -509 -271 -132 -79 -816 -747 -898 -877 -24 -38 -47 -60 -80 -76 -45 -23 -136 -111 -177 -171 -12 -16 -29 -55 -39 -85 -10 -30 -32 -84 -50 -120 -18 -36 -60 -146 -95 -245 -38 -113 -97 -252 -156 -373 -52 -106 -94 -196 -94 -199 0 -3 -26 -57 -59 -121 -74 -148 -94 -213 -121 -387 -12 -77 -28 -167 -37 -200 -8 -33 -18 -109 -22 -170 -9 -114 -27 -183 -64 -242 l-22 -35 -90 5 c-49 2 -107 11 -127 20 -30 12 -44 13 -73 4 -41 -12 -65 -50 -86 -133 -7 -26 -61 -142 -120 -258 -99 -191 -114 -216 -181 -283 -40 -41 -97 -92 -126 -115 -60 -47 -110 -125 -140 -218 -12 -38 -32 -158 -47 -285 -14 -121 -34 -269 -45 -330 -11 -60 -22 -135 -25 -165 -15 -138 -30 -210 -60 -275 -53 -115 -199 -307 -370 -485 -100 -104 -211 -258 -239 -332 -10 -26 -47 -82 -82 -123 -34 -42 -64 -80 -66 -84 -7 -17 -129 -91 -201 -122 -97 -42 -219 -137 -291 -228 -31 -38 -84 -94 -118 -123 -166 -140 -206 -203 -296 -464 l-58 -170 12 -114 c6 -63 30 -194 52 -290 22 -96 50 -222 62 -280 29 -142 65 -254 100 -315 40 -70 150 -173 245 -230 44 -27 101 -64 127 -82 33 -24 74 -41 131 -54 72 -17 89 -26 122 -59 33 -34 39 -47 43 -97 4 -47 12 -67 42 -108 21 -27 45 -64 54 -81 16 -34 119 -132 158 -152 13 -6 88 -29 166 -51 128 -36 150 -45 200 -86 89 -72 154 -155 190 -242 67 -167 60 -312 -23 -488 -26 -55 -58 -138 -71 -185 -25 -87 -91 -215 -191 -370 -53 -81 -171 -205 -370 -391 -56 -52 -74 -76 -83 -110 -21 -77 -17 -138 13 -204 23 -51 37 -66 88 -99 33 -21 66 -48 74 -60 29 -41 14 -354 -26 -508 -21 -85 -26 -254 -8 -305 12 -36 -2 -99 -52 -238 -26 -74 -32 -105 -33 -175 -1 -78 4 -97 56 -247 l57 -162 -62 -34 c-126 -70 -108 -66 -399 -82 -150 -8 -388 -18 -529 -22 l-256 -6 -57 -126 c-36 -82 -73 -191 -106 -310 -45 -166 -50 -194 -50 -288 l0 -104 90 -204 c81 -186 103 -225 238 -427 82 -123 173 -252 202 -288 86 -108 372 -420 384 -420 6 0 77 41 156 90 l144 90 137 0 c132 0 141 1 228 35 l90 34 123 -11 123 -10 95 -77 c52 -42 169 -146 260 -232 91 -85 192 -174 225 -196 33 -22 128 -68 212 -103 l152 -63 143 -151 c79 -83 265 -275 415 -426 l271 -276 115 -230 c62 -126 145 -307 182 -401 l68 -173 123 -110 c68 -61 163 -135 211 -165 48 -30 138 -98 198 -150 107 -94 112 -99 195 -244 l85 -149 129 -72 c123 -69 131 -73 165 -63 20 6 165 56 323 112 157 55 289 101 291 101 3 0 -8 -35 -25 -77 l-30 -78 23 -107 23 -107 108 -73 107 -73 1 -108 0 -109 74 -101 74 -102 21 -292 c20 -289 21 -292 53 -357 l31 -64 98 -42 c116 -50 212 -127 364 -295 55 -60 166 -179 247 -263 81 -84 166 -181 190 -215 l44 -62 121 -3 121 -3 45 75 c36 59 49 94 66 176 12 57 21 104 21 105 0 2 12 6 26 9 14 4 43 18 64 32 l38 26 186 -30 c158 -26 206 -38 325 -84 l141 -53 51 -120 c48 -113 52 -128 64 -255 18 -188 52 -353 88 -425 20 -41 57 -86 117 -145 l88 -85 76 -193 c93 -236 97 -275 41 -421 l-34 -90 23 -68 c13 -37 37 -91 55 -120 30 -48 50 -62 319 -228 l288 -177 100 -126 c98 -124 102 -128 198 -180 l99 -54 76 76 c75 74 79 81 150 244 l73 167 68 43 67 42 390 0 389 0 38 -39 38 -39 -6 -114 c-4 -62 -9 -125 -12 -139 -5 -26 -4 -26 82 -37 127 -17 292 -67 378 -115 l76 -42 0 -110 0 -110 -85 -96 c-77 -87 -91 -98 -155 -124 -39 -16 -73 -32 -76 -36 -3 -5 34 -60 81 -123 84 -111 90 -117 203 -188 64 -40 191 -127 282 -193 91 -67 171 -125 178 -129 7 -4 151 -56 320 -116 169 -59 353 -128 409 -153 120 -53 213 -121 213 -154 0 -12 5 -91 11 -175 10 -153 57 -374 82 -390 5 -3 33 -9 62 -13 48 -6 57 -3 116 31 35 21 91 62 124 91 l60 54 78 -7 c72 -6 90 -12 220 -80 l142 -73 152 -243 c120 -191 153 -251 153 -278 1 -19 5 -82 10 -140 l9 -105 -40 -89 c-22 -49 -64 -129 -94 -176 l-55 -87 0 -94 0 -95 63 -27 c44 -19 82 -47 126 -91 l63 -63 -7 -78 -8 -77 -46 -20 c-25 -11 -93 -30 -149 -43 -57 -13 -105 -25 -107 -27 -1 -2 -7 -36 -13 -77 -8 -53 -8 -89 0 -127 l11 -54 94 0 93 0 163 -95 c186 -109 138 -56 438 -475 141 -197 225 -290 341 -376 l29 -22 172 53 c94 29 226 76 293 105 l120 52 52 94 c52 94 52 96 63 222 9 97 24 173 65 326 29 109 54 199 56 201 2 1 44 16 93 33 62 22 124 34 199 41 l110 10 52 58 c32 36 76 71 117 92 l65 35 249 -32 c136 -18 356 -41 489 -52 l240 -20 383 54 c211 30 387 58 391 63 4 4 16 33 25 63 10 30 38 87 62 126 49 82 35 75 216 99 l117 16 108 -41 c107 -41 109 -42 137 -93 l27 -52 -20 -70 -20 -70 58 -60 c50 -53 65 -78 119 -208 34 -81 66 -158 70 -171 9 -21 0 -30 -94 -102 -58 -43 -106 -84 -109 -91 -3 -6 -7 -49 -10 -95 l-6 -83 84 -72 83 -72 144 24 c97 16 223 27 384 34 l240 11 229 -63 229 -64 361 74 361 73 159 -11 c157 -10 160 -11 324 -70 268 -97 508 -204 587 -261 276 -202 272 -200 517 -306 l235 -102 179 0 179 0 86 -75 c80 -70 90 -84 166 -222 44 -82 99 -191 123 -243 39 -88 51 -104 159 -215 154 -157 185 -212 201 -353 8 -76 8 -133 0 -220 -11 -110 -10 -125 14 -252 14 -74 38 -183 55 -241 18 -66 37 -180 51 -302 l23 -196 -22 -146 c-19 -126 -30 -164 -76 -276 -30 -72 -88 -186 -129 -253 -45 -76 -77 -140 -81 -166 -16 -94 -79 -282 -150 -450 -70 -163 -84 -189 -201 -351 -69 -95 -146 -214 -170 -262 -57 -113 -116 -305 -160 -520 -46 -229 -101 -434 -179 -666 l-64 -194 -148 -151 c-179 -183 -253 -267 -363 -411 -46 -60 -128 -158 -181 -216 -53 -59 -104 -117 -112 -130 -27 -41 -74 -225 -127 -494 -62 -314 -112 -473 -286 -905 -94 -234 -142 -339 -207 -453 -126 -219 -177 -402 -177 -636 0 -37 -9 -82 -24 -121 l-23 -63 23 -92 c13 -50 36 -118 51 -151 25 -53 28 -69 27 -159 -1 -126 -34 -316 -80 -465 l-36 -115 -118 -62 -118 -63 -5 -42 c-20 -148 -20 -149 16 -228 19 -41 66 -125 105 -187 l71 -112 -65 -147 c-87 -197 -87 -193 -26 -226 43 -24 61 -28 132 -28 66 0 103 -7 179 -31 l96 -31 275 5 275 5 180 52 c99 28 251 69 337 91 86 21 221 56 300 78 148 41 491 117 658 146 52 9 206 53 343 96 136 43 252 79 258 79 30 0 194 81 285 139 75 49 123 90 186 160 l85 94 -20 81 c-11 45 -23 84 -26 88 -3 4 -49 16 -101 28 l-96 21 -129 -45 c-72 -24 -157 -48 -189 -52 -33 -4 -105 -26 -161 -49 -89 -37 -115 -44 -224 -53 l-123 -11 -67 46 c-36 26 -70 49 -74 53 -4 4 -3 28 3 55 8 37 25 64 77 121 l66 74 267 0 c231 0 278 3 360 21 97 21 315 93 338 111 8 7 12 45 12 122 0 88 -4 124 -21 172 -21 59 -24 62 -85 92 -37 19 -94 36 -137 43 -109 16 -183 46 -196 78 -9 22 -51 200 -51 216 0 2 23 22 50 44 l51 40 81 -30 c44 -16 121 -54 171 -84 l90 -54 88 45 88 44 22 72 c14 50 19 84 15 112 -11 67 -72 193 -120 250 -41 48 -46 58 -46 102 l1 49 73 41 c93 51 110 46 195 -54 l63 -72 87 0 c103 0 174 23 385 123 l132 64 71 -20 c67 -18 75 -23 112 -72 23 -30 61 -70 85 -91 l45 -37 -39 -76 c-21 -42 -53 -120 -71 -175 -31 -92 -37 -102 -87 -142 -84 -68 -247 -151 -313 -159 l-56 -7 -54 61 -53 61 -90 0 c-86 0 -90 -1 -126 -32 -20 -18 -51 -45 -67 -59 -29 -24 -31 -31 -38 -121 -7 -92 -6 -97 24 -166 17 -39 47 -112 66 -162 46 -122 46 -184 0 -401 -19 -89 -34 -163 -32 -164 1 0 32 -29 69 -64 l66 -62 34 22 c19 12 62 65 98 120 l65 97 225 150 c124 83 278 182 344 222 150 90 286 209 428 375 129 151 360 367 538 502 69 52 231 179 360 281 214 170 248 201 385 355 136 153 158 184 237 326 87 155 87 156 88 229 0 47 -8 99 -22 149 -21 71 -27 80 -86 132 -35 31 -93 97 -128 148 -57 82 -64 97 -64 140 0 69 -34 161 -91 248 -61 94 -92 156 -109 218 -13 48 -13 49 18 79 29 29 36 31 144 40 112 9 114 10 182 56 38 26 73 50 78 53 5 3 31 91 57 195 95 370 133 479 247 705 50 101 58 111 167 210 63 57 142 128 176 158 81 69 105 120 119 242 9 87 8 104 -12 184 l-22 87 -53 32 -54 31 -28 120 c-15 66 -49 226 -74 356 l-47 237 -36 -10 c-24 -7 -78 -47 -159 -120 -67 -60 -124 -110 -127 -111 -3 -1 -67 94 -142 211 l-136 214 27 151 c14 84 34 186 43 227 l18 75 74 17 c126 30 398 86 526 107 69 12 153 34 194 51 41 17 91 30 114 30 40 0 44 -3 93 -68 56 -75 59 -86 72 -217 5 -49 23 -168 40 -264 l31 -174 -25 -97 c-14 -54 -42 -136 -64 -183 -30 -65 -42 -108 -51 -179 l-11 -93 45 -127 c41 -114 54 -140 130 -240 48 -64 97 -143 114 -183 l29 -71 -19 -49 c-46 -118 -217 -237 -437 -304 -74 -23 -136 -43 -137 -44 -4 -4 -90 -239 -109 -297 -10 -30 -42 -97 -72 -148 l-54 -93 -15 -137 c-29 -275 -29 -259 15 -471 23 -107 44 -197 46 -200 6 -6 136 83 192 131 24 20 49 41 56 45 7 4 42 46 77 93 141 187 242 298 367 407 262 226 279 246 459 548 116 193 186 324 247 460 130 289 326 650 541 995 71 114 116 173 212 275 70 75 162 188 218 268 l96 138 0 102 c0 95 -3 110 -46 234 -50 143 -49 142 -139 161 -35 8 -68 1 -223 -43 -151 -44 -196 -61 -269 -105 -61 -36 -112 -58 -167 -72 l-80 -19 -23 24 -23 23 25 134 c13 74 38 175 55 224 16 50 30 91 30 93 0 2 -83 3 -185 3 l-186 0 -74 32 c-41 18 -86 41 -100 53 l-25 20 73 78 72 78 266 31 266 32 42 83 c38 78 41 89 41 171 0 50 9 123 20 172 11 47 20 121 20 165 l0 80 63 68 c59 65 66 69 146 93 47 13 91 24 98 24 7 0 20 -14 28 -30 15 -28 14 -41 -6 -163 -13 -77 -42 -195 -70 -283 -48 -149 -49 -153 -49 -280 0 -115 3 -133 23 -168 12 -22 37 -48 54 -59 52 -30 99 -16 222 67 115 78 115 77 169 226 18 47 50 135 73 195 23 61 56 150 74 200 l33 90 99 55 c54 30 136 82 181 115 77 55 87 68 144 165 33 58 96 159 139 226 65 98 85 139 109 221 17 55 60 162 96 238 36 76 85 195 108 264 54 155 104 244 201 352 41 46 114 147 162 224 164 265 245 378 356 498 l111 119 10 120 10 119 -35 34 c-34 33 -122 70 -275 114 -41 12 -79 30 -90 43 -47 54 -47 53 -3 84 36 24 55 30 128 35 47 3 95 9 106 13 25 8 101 140 115 198 5 24 10 84 10 133 l0 91 85 42 84 42 161 -22 161 -21 117 33 c113 32 120 36 222 116 198 154 266 226 352 371 88 149 227 473 318 740 54 159 66 183 152 316 145 225 362 460 635 687 l212 176 193 52 c266 73 568 186 704 265 l107 62 74 288 74 287 -70 133 c-49 92 -85 146 -118 178 l-48 46 -100 -11 c-63 -8 -143 -26 -215 -51 -109 -36 -119 -42 -185 -105 -38 -36 -126 -107 -195 -157 -128 -93 -513 -343 -528 -343 -4 0 -54 18 -111 40 -78 31 -125 57 -194 110 -50 39 -100 70 -111 69 -12 0 -43 -8 -71 -18 -47 -16 -52 -21 -87 -91 -21 -41 -40 -93 -44 -115 -5 -35 -1 -47 32 -95 20 -30 50 -81 66 -113 32 -65 36 -127 15 -234 -10 -53 -21 -73 -66 -126 -55 -64 -95 -94 -382 -285 -116 -77 -160 -113 -214 -175 -63 -72 -71 -78 -99 -73 -36 7 -29 -1 -53 70 l-19 59 42 156 c78 292 185 623 220 685 l35 59 -22 98 -22 98 -86 31 c-47 17 -183 65 -301 105 l-215 74 -200 -23 -200 -23 -145 49 c-80 26 -151 50 -158 53 -9 3 10 31 56 82 67 76 208 262 218 288 3 7 -34 75 -81 152 -85 134 -90 140 -182 207 -52 37 -93 69 -91 70 2 1 53 50 115 110 l111 108 119 -63 c65 -34 158 -89 206 -122 64 -42 112 -65 170 -82 45 -13 85 -21 88 -17 3 4 33 43 66 87 33 44 89 107 124 139 61 57 63 58 108 52 47 -6 60 -16 149 -119 18 -21 81 -67 140 -101 l107 -63 155 11 155 11 160 96 160 96 315 -21 315 -21 150 -84 150 -83 155 10 155 11 88 93 c79 84 293 335 310 365 4 7 -8 74 -27 150 -29 114 -48 162 -105 273 -39 74 -71 141 -71 148 0 12 175 391 255 553 36 72 41 78 99 106 l60 30 116 -75 c63 -42 153 -98 199 -125 l84 -50 73 7 c41 3 91 9 113 12 38 6 39 7 45 58 3 28 8 121 12 207 l6 156 85 116 c66 91 100 127 152 163 36 26 69 50 73 53 9 8 82 439 113 669 13 96 25 175 27 176 2 1 87 42 189 90 185 87 188 88 280 93 52 3 166 0 255 -5 l161 -10 117 -62 c111 -59 119 -65 138 -109 28 -65 45 -291 30 -384 -7 -37 -12 -77 -12 -88 0 -11 -50 -80 -115 -156 l-115 -137 -116 -60 c-64 -34 -116 -65 -115 -71 1 -5 23 -36 49 -67 47 -57 47 -57 103 -57 l57 -1 -20 -77 c-19 -77 -21 -80 -116 -176 -53 -54 -131 -127 -172 -162 -83 -70 -284 -187 -430 -250 l-95 -42 -12 -84 c-6 -46 -21 -111 -32 -143 -16 -45 -21 -83 -21 -162 0 -91 -4 -113 -35 -202 -68 -195 -92 -236 -214 -364 -105 -110 -115 -123 -153 -215 -44 -109 -70 -192 -62 -205 14 -22 70 -36 189 -47 l130 -13 68 30 c65 28 78 39 229 208 144 161 171 186 269 251 241 159 391 274 544 414 93 86 221 191 307 252 145 102 152 105 315 162 93 32 343 127 556 211 364 143 399 159 570 260 100 59 277 171 392 248 116 77 323 209 460 293 157 96 293 188 367 248 116 94 116 95 108 127 -5 18 -16 71 -24 118 -9 47 -39 171 -67 275 -49 182 -53 192 -93 231 l-41 42 -177 30 c-105 18 -188 38 -203 48 -23 15 -26 22 -20 53 4 20 18 63 32 95 l25 59 -22 76 c-20 67 -27 80 -67 110 -35 28 -63 38 -136 52 -51 10 -127 19 -169 19 l-77 0 -11 42 c-10 35 -9 49 9 98 14 38 21 81 21 128 l0 70 -97 63 c-89 56 -117 68 -302 125 l-204 63 -196 -24 c-165 -21 -221 -32 -354 -74 -152 -47 -160 -51 -223 -108 -36 -32 -83 -73 -105 -91 l-39 -34 0 237 0 238 -51 259 -50 259 62 71 61 72 267 85 266 86 76 150 77 149 7 335 c4 184 11 347 16 363 4 16 38 81 76 145 l67 115 101 -6 c55 -4 118 -9 140 -12 l40 -5 53 106 53 107 -22 149 -21 149 42 50 42 50 67 -6 c115 -12 112 -11 136 -96 11 -42 23 -79 26 -83 4 -3 84 -15 179 -26 246 -28 260 -31 260 -66 0 -13 -9 -60 -20 -102 l-20 -78 56 -159 c52 -151 62 -169 184 -359 l129 -200 105 -82 c58 -46 108 -83 112 -83 4 0 52 33 108 73 55 40 161 111 234 157 72 46 132 87 132 92 0 28 -213 428 -274 513 -68 98 -73 108 -101 224 l-29 121 39 80 39 80 111 0 110 0 32 89 31 89 -106 189 -107 188 -110 12 c-61 6 -115 12 -121 12 -6 1 -23 32 -39 70 l-27 69 93 114 93 113 177 -19 178 -20 43 -106 43 -107 115 -28 c63 -16 122 -30 131 -32 12 -3 36 20 76 74 33 43 63 83 66 90 4 6 -18 78 -48 160 l-56 148 -275 260 -276 260 -88 147 -88 146 10 190 11 190 -183 199 -182 198 6 85 c3 47 9 187 12 311 l7 225 84 29 c45 16 83 33 83 37 0 4 -33 97 -74 206 -66 177 -77 214 -96 346 -12 83 -39 206 -61 281 -21 73 -39 138 -39 143 0 6 31 22 69 37 l70 28 133 -84 c73 -45 187 -120 254 -165 l120 -83 11 -163 c9 -145 14 -173 43 -252 l34 -88 51 6 c29 3 128 13 222 21 164 15 179 15 364 -5 107 -12 263 -35 347 -51 85 -17 160 -29 167 -27 11 3 0 68 -50 275 -4 17 9 33 60 79 l66 57 107 -48 c59 -27 109 -50 111 -51 2 -2 9 -48 15 -103 7 -56 14 -103 17 -105 2 -2 81 -17 174 -35 l170 -31 144 81 c79 44 149 78 155 76 6 -3 69 -52 140 -111 71 -59 182 -139 247 -179 l118 -72 -34 -65 c-19 -36 -44 -92 -55 -125 l-20 -59 78 -81 c73 -74 124 -157 104 -168 -4 -3 -41 -12 -83 -21 -61 -13 -82 -23 -108 -50 l-32 -33 11 -84 c13 -97 8 -153 -25 -296 l-25 -103 42 -55 c22 -30 44 -55 47 -55 4 0 58 36 121 80 l114 80 136 0 c119 0 148 -4 245 -30 61 -16 111 -30 113 -30 1 0 2 57 2 126 l0 126 50 71 c28 40 115 140 194 222 l143 151 -44 88 c-36 72 -46 104 -55 177 -10 89 -10 91 21 164 17 41 31 76 31 79 0 2 -53 51 -117 108 l-118 105 -139 52 c-88 32 -171 71 -225 106 -82 52 -88 58 -126 132 -21 43 -59 99 -83 124 -39 43 -51 49 -131 69 l-88 22 -28 136 c-16 75 -32 147 -36 158 -4 12 -43 47 -86 77 -43 31 -103 82 -134 114 -53 55 -58 63 -79 151 -21 88 -22 102 -12 225 7 84 19 155 32 195 l22 63 61 -3 61 -3 41 -70 41 -70 79 -23 c43 -12 79 -21 80 -20 2 2 21 39 42 83 39 77 83 200 100 278 8 37 11 40 108 82 76 33 119 45 178 50 42 4 79 10 81 14 2 3 9 58 15 121 26 266 51 399 95 509 l42 105 129 76 c72 42 153 90 180 107 84 52 87 52 137 -16 25 -32 67 -98 93 -145 l49 -86 57 0 c39 0 59 4 62 14 3 7 8 53 12 102 5 72 3 106 -14 176 l-21 88 20 53 20 54 125 38 126 39 50 -50 c28 -27 75 -79 104 -115 l54 -65 111 12 c154 18 239 47 291 100 l41 42 -33 74 c-19 40 -53 107 -76 148 -29 51 -42 83 -39 100 28 149 23 140 111 230 46 47 95 108 109 137 24 48 26 63 26 173 0 66 2 120 3 120 2 0 30 -9 62 -20 67 -23 94 -24 182 -9 88 15 91 33 31 153 -44 87 -47 98 -64 245 l-17 153 28 53 c22 40 40 58 71 73 40 20 43 20 58 3 9 -10 54 -28 99 -40 l82 -22 130 41 c120 38 134 46 182 92 l52 51 67 -7 c48 -5 85 -16 128 -40 57 -31 64 -33 103 -22 38 10 49 20 99 94 64 96 74 123 98 248 l18 91 85 63 c46 35 90 69 98 76 20 20 29 134 18 224 l-9 78 45 34 c25 18 59 56 76 84 16 28 55 78 85 112 l55 61 125 21 125 21 150 98 c83 54 182 116 220 139 39 22 87 55 107 74 37 33 38 34 27 75 -11 42 -13 43 -78 63 -36 10 -98 24 -138 31 -51 8 -78 18 -93 34 l-21 22 32 83 c18 46 52 117 76 157 23 41 56 99 72 131 l29 57 171 85 171 85 0 124 c0 114 3 134 32 223 l32 97 53 7 c48 6 63 2 147 -34 l95 -41 77 12 78 12 21 87 c27 104 51 140 119 178 60 34 109 96 126 159 6 24 10 44 8 46 -2 2 -56 17 -120 34 -97 26 -136 31 -230 31 -120 1 -170 8 -259 41 -49 18 -58 26 -78 67 -13 26 -36 63 -52 83 -20 25 -29 48 -29 72 l0 35 83 4 c45 2 121 -3 168 -11 72 -11 101 -11 185 0 l99 14 11 67 11 68 -47 54 c-25 30 -54 77 -64 105 -18 50 -18 50 13 184 46 198 40 299 -17 311 -49 10 -275 44 -407 61 -71 9 -193 33 -270 52 -77 19 -150 38 -163 40 -30 7 -29 6 -53 125 -16 76 -20 118 -14 163 4 33 11 141 16 240 18 363 36 454 104 525 24 25 55 70 68 101 14 31 57 101 96 155 67 94 71 102 71 154 0 51 -4 61 -51 125 -82 112 -206 377 -194 414 7 22 281 302 383 392 l74 64 40 160 c39 158 40 161 33 287 l-7 128 47 142 c26 79 52 148 59 155 24 25 336 161 431 188 55 15 101 28 102 29 6 5 -48 190 -57 196 -6 4 -47 15 -90 25 -66 15 -91 16 -160 7 -75 -9 -88 -8 -136 10 l-54 21 0 67 0 68 83 53 c67 43 106 60 212 89 81 23 168 56 230 87 l100 51 67 114 c81 139 162 373 173 503 4 55 17 109 42 172 42 112 75 142 186 169 40 9 117 32 172 52 85 29 108 42 153 85 28 28 52 55 52 60 0 5 -28 47 -62 94 -60 80 -65 84 -126 103 -35 11 -114 25 -175 31 -104 11 -117 10 -181 -10 -91 -28 -232 -29 -330 -2 -39 11 -89 24 -111 30 -29 8 -46 20 -59 42 -18 31 -18 34 -1 110 18 77 19 79 54 89 80 21 173 30 311 30 80 0 179 5 221 11 l75 12 44 82 44 83 -12 84 c-6 45 -17 142 -22 213 l-11 130 40 111 c22 61 65 193 96 293 49 159 66 199 142 333 47 84 125 227 173 318 49 93 116 204 153 252 93 120 247 249 378 317 57 30 123 72 147 94 l42 41 0 79 c0 72 -3 82 -30 121 -26 36 -41 46 -100 65 -62 20 -77 21 -152 12 -101 -13 -680 -15 -797 -3 -75 7 -95 5 -210 -23 l-127 -31 -60 20 c-96 33 -371 222 -484 332 -110 108 -161 135 -341 183 -133 36 -203 39 -387 15 l-124 -16 -42 30 -41 30 -6 133 c-4 74 -10 144 -14 155 -5 15 -2 23 10 27 9 4 118 10 243 14 l227 6 145 43 145 43 75 -56 c41 -32 143 -118 225 -192 83 -74 159 -143 170 -153 21 -18 116 -38 355 -78 69 -11 164 -30 213 -41 68 -17 102 -20 153 -14 61 6 70 10 132 64 37 32 82 81 101 109 32 46 39 51 90 61 39 7 75 8 116 1 33 -5 67 -10 76 -10 8 0 39 29 68 64 59 74 102 185 121 313 6 44 22 98 36 124 l24 47 -34 98 c-61 176 -60 166 -11 214 39 38 46 53 75 158 18 64 50 151 71 194 67 133 49 216 -60 282 -33 20 -79 60 -102 89 -24 29 -58 69 -77 89 -32 34 -34 39 -28 82 6 41 14 52 59 87 62 48 76 80 76 176 l1 71 -97 62 -96 62 -41 -23 c-64 -35 -73 -42 -116 -97 -39 -48 -47 -53 -136 -81 l-95 -29 -127 43 c-70 23 -155 60 -189 81 -60 38 -63 41 -92 122 l-30 82 40 113 c34 95 47 120 88 162 27 28 56 65 65 83 9 17 19 32 21 32 19 0 197 -45 275 -70 79 -25 112 -30 196 -30 l102 0 28 38 c39 52 145 162 156 162 5 0 24 -11 42 -25 18 -14 60 -36 93 -50 l60 -24 66 21 66 22 30 81 c17 44 31 87 31 94 0 28 -85 134 -148 184 -54 43 -89 62 -177 92 l-110 38 -265 6 c-172 4 -272 10 -285 18 -12 7 -28 35 -39 68 l-17 56 100 128 c55 71 102 133 103 139 9 29 -204 241 -324 322 -29 19 -39 34 -44 64 -6 39 -5 41 57 98 l64 57 80 1 81 0 66 -67 c36 -38 97 -112 136 -166 55 -78 87 -111 151 -158 99 -73 216 -131 310 -154 l70 -17 92 31 92 31 63 -52 63 -51 22 -96 c17 -78 29 -107 66 -158 24 -35 47 -63 51 -63 4 0 43 6 87 14 44 8 126 17 181 21 56 4 106 10 111 14 5 3 33 75 62 160 l53 153 -22 115 c-13 66 -19 118 -14 123 5 5 72 56 149 115 123 93 145 114 183 177 39 64 45 84 70 222 28 157 35 354 13 380 -6 7 -62 20 -125 31 l-116 18 -152 -31 c-119 -24 -178 -42 -265 -82 -121 -54 -318 -130 -337 -130 -7 0 -31 27 -54 60 l-43 60 -112 -1 c-78 0 -142 -7 -212 -23 l-100 -22 -67 55 c-37 30 -90 82 -117 116 l-50 62 -106 10 -106 10 -65 64 -64 64 7 65 c11 112 7 107 128 162 l110 49 100 -105 100 -104 140 -22 c482 -74 523 -81 640 -120 66 -22 126 -40 133 -40 6 0 96 33 200 73 173 68 201 83 357 187 94 62 211 143 260 180 50 36 117 85 151 107 l60 41 130 -29 c158 -36 186 -46 180 -68 -2 -9 -8 -32 -11 -51 -4 -19 -21 -62 -37 -94 -16 -32 -47 -118 -68 -190 -21 -72 -55 -176 -75 -231 l-37 -100 6 -210 c4 -115 11 -363 16 -550 5 -187 12 -356 15 -375 4 -19 -3 -105 -15 -190 -18 -131 -32 -188 -90 -365 -37 -115 -95 -270 -129 -343 -37 -82 -66 -163 -76 -215 -10 -45 -42 -161 -71 -257 -51 -164 -55 -185 -65 -330 -7 -109 -20 -200 -44 -305 -19 -82 -48 -215 -65 -295 -33 -158 -134 -475 -155 -487 -7 -5 -59 -48 -115 -98 l-102 -90 7 -85 c8 -107 35 -157 139 -261 62 -63 79 -88 112 -164 30 -72 40 -111 49 -195 9 -93 8 -119 -12 -235 -36 -213 -72 -329 -141 -452 -33 -59 -72 -137 -87 -173 -15 -36 -40 -91 -56 -122 -37 -74 -79 -313 -154 -883 -31 -231 -62 -467 -70 -525 -16 -115 -20 -525 -6 -645 19 -167 -10 -438 -104 -985 -36 -205 -63 -543 -51 -629 4 -25 11 -236 16 -468 l10 -422 -59 -163 c-33 -90 -99 -255 -147 -368 -86 -202 -87 -206 -95 -315 -5 -60 -12 -146 -17 -190 l-9 -80 63 -186 c61 -178 64 -190 64 -282 l0 -96 -50 -79 -50 -80 -68 13 c-37 8 -98 27 -137 43 l-69 30 -44 -30 c-48 -33 -56 -48 -72 -140 -6 -34 -13 -75 -16 -89 l-5 -26 123 -6 c159 -9 167 -14 308 -195 l25 -32 72 11 c40 6 79 16 88 23 9 6 22 36 29 67 8 34 29 80 55 116 34 49 48 84 76 189 18 71 41 152 50 179 9 28 27 115 40 195 23 137 25 168 25 550 0 344 3 428 20 558 21 162 60 327 115 478 52 144 95 432 95 639 0 149 5 191 51 477 38 234 64 362 104 504 41 146 59 234 76 370 22 179 22 179 6 459 -33 553 -35 488 22 870 47 311 52 365 62 625 10 281 11 288 55 495 65 304 140 714 179 986 24 169 47 282 79 395 24 88 85 348 136 579 l91 420 34 435 34 435 83 325 84 325 -12 240 c-7 132 -17 278 -21 325 -8 78 -5 107 33 315 30 168 52 261 82 345 23 63 61 185 86 271 49 176 72 239 196 534 218 521 375 1231 349 1575 -4 52 -8 169 -8 260 l-1 165 -43 64 c-36 55 -54 71 -124 111 -73 41 -97 49 -233 75 l-151 28 -167 -27 c-92 -15 -181 -31 -197 -35 -17 -5 -96 -53 -175 -109 -134 -93 -154 -103 -271 -141 -69 -23 -133 -41 -142 -41 -9 0 -88 26 -175 59 -108 39 -181 60 -228 65 -164 16 -141 4 -282 156 l-127 137 -37 174 c-21 96 -54 287 -74 425 l-36 251 30 60 c17 34 46 72 67 87 20 16 38 26 39 25 1 -2 27 -76 57 -164 34 -100 86 -224 139 -330 l85 -169 96 -61 c68 -43 113 -80 156 -130 68 -80 160 -155 190 -155 12 0 65 9 119 20 87 18 125 34 343 146 136 69 272 144 305 166 l58 40 123 -50 c117 -48 129 -51 266 -62 l144 -12 73 78 c40 44 88 97 107 120 l34 40 11 190 c5 104 10 299 10 433 0 155 8 341 20 505 21 258 22 264 85 511 35 138 78 322 95 410 18 88 61 270 96 405 73 286 99 420 115 605 l12 134 -42 64 c-40 62 -43 64 -99 74 l-57 11 -122 -64 c-66 -36 -172 -83 -235 -105 l-113 -41 -148 22 c-131 19 -167 28 -305 82 l-157 62 -172 164 -171 164 -12 63 -12 62 41 82 c23 44 43 81 45 81 16 0 164 -34 177 -41 9 -4 61 -47 115 -94 166 -144 156 -139 270 -126 71 8 101 16 110 29 7 9 37 65 66 124 l53 107 82 1 82 0 53 -75 c78 -107 129 -148 260 -206 l113 -50 89 12 c74 9 103 18 163 52 83 46 72 24 124 252 25 113 49 181 122 350 49 115 112 275 139 355 l48 144 0 393 0 392 54 148 c66 181 111 283 211 483 118 235 238 566 280 771 18 91 57 246 85 345 39 134 62 246 95 449 l43 270 -14 225 c-7 124 -18 266 -23 315 -8 62 -7 160 0 315 10 219 12 229 54 383 40 144 50 169 129 307 l86 149 51 238 c28 131 61 298 73 371 l23 133 -43 216 -44 217 0 270 c0 227 4 300 25 465 58 460 75 642 75 809 0 92 5 251 12 353 13 212 24 156 -87 454 l-52 140 -22 320 c-20 307 -23 327 -61 475 -47 181 -90 518 -90 715 l0 121 -53 74 c-48 66 -58 90 -86 200 -29 109 -151 475 -239 716 -16 44 -54 123 -84 176 -63 108 -288 412 -312 421 -27 11 -267 167 -329 214 l-57 44 -88 -32 c-48 -18 -111 -51 -139 -72 l-53 -39 0 -72 0 -71 88 -56 87 -55 44 -115 43 -114 9 -200 c7 -169 24 -374 32 -381 1 -1 56 -12 122 -24 93 -17 142 -21 220 -17 55 3 109 8 120 12 15 5 38 -10 98 -65 l77 -72 0 -77 c0 -71 -4 -85 -45 -170 -40 -82 -45 -100 -45 -162 0 -64 7 -86 99 -316 55 -137 150 -358 211 -493 61 -135 138 -312 171 -395 59 -149 59 -150 59 -255 0 -58 9 -163 20 -235 11 -71 20 -159 20 -195 0 -69 15 -165 49 -317 15 -64 21 -128 21 -205 0 -192 19 -476 42 -631 l22 -149 -53 -321 c-67 -409 -107 -555 -209 -774 l-76 -163 -79 0 c-43 0 -110 5 -148 11 l-70 11 -65 -42 c-35 -23 -64 -47 -64 -54 0 -6 9 -49 20 -96 l19 -85 -38 -60 c-21 -33 -54 -91 -73 -130 -62 -123 -71 -135 -98 -134 -14 0 -52 8 -84 17 -57 17 -59 18 -78 68 l-20 51 -80 22 c-44 12 -81 21 -82 19 -66 -85 -119 -166 -140 -213 -15 -33 -41 -75 -59 -92 -28 -30 -36 -33 -92 -33 -60 0 -61 1 -93 42 -30 39 -32 47 -32 117 1 71 4 81 44 155 l44 79 -30 86 c-37 106 -40 110 -98 192 -35 49 -50 79 -57 122 l-10 57 77 0 c59 0 97 -7 166 -30 l89 -31 142 53 142 52 30 69 c17 38 31 75 31 81 0 6 -16 35 -35 63 -19 29 -35 56 -35 61 0 5 37 41 82 80 68 59 106 82 218 132 122 56 145 70 241 155 l106 93 43 114 c41 105 44 123 55 268 11 149 11 158 -10 219 l-21 64 -120 47 c-65 26 -153 61 -194 79 -178 78 -265 101 -425 113 l-150 11 -100 -66 c-93 -62 -107 -67 -202 -85 -91 -18 -109 -25 -176 -71 l-75 -52 -53 -118 -53 -119 -61 -20 c-57 -20 -251 -42 -364 -42 -46 0 -54 -5 -174 -99 -70 -55 -155 -120 -190 -146 -38 -28 -86 -77 -122 -126 -55 -73 -67 -83 -148 -125 l-88 -45 -73 41 -73 40 -20 97 -20 98 41 77 40 76 170 103 c107 66 206 135 269 190 l100 86 161 51 c89 28 180 56 202 63 36 10 45 18 65 63 55 119 186 217 338 252 59 14 74 24 224 151 89 74 179 158 201 186 33 41 57 58 134 93 l93 44 79 -40 c66 -33 103 -44 214 -62 l134 -22 41 -65 c27 -43 58 -78 91 -100 52 -36 154 -137 184 -183 17 -26 23 -28 92 -28 64 0 74 2 74 18 1 9 5 48 10 86 7 56 5 92 -11 175 -11 59 -31 220 -44 360 l-25 253 -84 92 c-47 51 -121 150 -170 226 -47 74 -112 170 -143 214 l-58 78 -145 60 -145 61 -400 53 c-220 29 -471 66 -557 82 -151 28 -160 31 -264 91 -104 60 -111 62 -238 82 -72 11 -205 39 -295 62 -160 40 -166 42 -224 91 -119 101 -140 116 -288 202 -112 65 -181 114 -272 194 -90 79 -174 138 -322 230 -189 117 -211 127 -444 216 -221 85 -262 97 -415 125 l-170 31 -231 172 c-126 95 -291 209 -366 254 l-137 82 -92 0 c-146 0 -155 -5 -267 -142 l-97 -118 -150 0 c-122 0 -188 7 -347 33 l-196 32 -145 122 c-131 109 -318 253 -330 253 -3 0 -47 -50 -99 -112 -85 -101 -106 -135 -214 -347 l-120 -235 -225 -137 -225 -137 -110 -7 -110 -7 32 33 c22 24 38 57 53 112 l21 78 -31 95 -32 95 -140 105 -139 106 -145 38 c-333 90 -350 97 -659 264 -159 86 -423 223 -586 304 l-297 147 -117 242 -118 241 -13 137 c-7 75 -14 138 -16 139 -2 2 -136 105 -297 231 l-295 228 -205 63 -206 63 -185 -65 -185 -65 -109 -227 c-59 -124 -135 -298 -168 -386 -61 -164 -67 -174 -179 -298 l-34 -37 -262 -30 -262 -31 -133 30 c-75 17 -175 48 -230 71 l-96 42 121 101 c157 131 306 233 485 332 l143 79 242 245 242 246 39 116 c35 101 49 127 106 200 l66 83 115 23 c80 15 152 22 235 22 l119 0 295 -108 c372 -136 411 -159 503 -309 32 -54 84 -128 113 -164 59 -72 50 -68 189 -84 l50 -6 53 103 53 103 -1 130 c0 72 -4 158 -9 192 -8 52 -6 73 14 140 12 43 26 111 30 152 12 125 119 351 222 471 91 106 147 221 161 331 11 84 10 88 -23 190 -19 60 -42 165 -54 248 l-21 144 21 116 c19 109 28 131 136 356 l115 240 122 97 c204 160 310 200 644 244 l133 17 48 56 c26 31 51 61 54 68 17 28 91 376 122 573 30 183 42 236 85 354 28 77 71 206 95 286 l45 147 -15 254 c-30 509 -31 451 14 809 51 407 81 538 165 729 79 179 167 299 290 395 72 56 312 231 343 249 6 4 82 22 170 40 125 26 170 31 218 26 150 -17 148 -17 276 73 111 78 118 85 159 161 59 110 183 296 312 469 106 142 111 151 143 257 18 61 36 148 40 193 5 64 17 108 52 193 41 101 50 116 121 188 42 42 138 128 213 190 l136 112 76 150 c47 93 96 209 127 305 l52 155 87 83 c108 104 262 207 322 217 24 4 94 22 155 41 96 30 124 34 217 34 79 0 107 -3 107 -12 0 -7 9 -89 20 -183 31 -267 28 -324 -22 -469 -39 -113 -55 -140 -234 -415 l-192 -294 -88 -46 -88 -46 -93 -154 c-66 -111 -101 -182 -124 -250 -17 -53 -55 -159 -85 -236 -60 -158 -164 -538 -164 -600 0 -34 6 -47 35 -75 l34 -33 123 12 122 12 89 54 89 55 127 0 c69 0 182 -7 251 -15 69 -8 161 -15 205 -15 44 -1 100 -5 125 -10 42 -8 51 -5 122 33 43 23 78 45 78 50 0 4 -14 40 -31 80 -28 67 -36 76 -113 134 -63 46 -91 75 -115 117 -17 31 -31 60 -31 66 0 14 89 168 100 175 15 9 164 -33 323 -92 84 -30 246 -86 361 -123 l209 -68 53 40 c30 22 54 45 54 51 0 5 -24 56 -52 113 l-53 104 -90 36 c-49 20 -144 61 -211 92 l-120 56 -53 79 c-29 43 -51 80 -49 82 2 1 40 21 85 44 81 40 84 41 189 41 l106 0 112 82 c61 45 112 82 113 82 1 1 12 60 24 131 16 93 31 148 55 198 29 62 38 72 82 92 42 20 70 23 213 28 90 3 173 8 184 12 12 3 67 81 137 194 100 159 126 194 175 232 32 25 95 78 141 119 75 65 89 84 134 174 28 56 51 102 52 103 0 1 59 -9 130 -23 71 -13 131 -22 134 -19 7 7 50 255 157 905 52 316 121 699 154 850 33 151 82 399 111 550 50 269 52 277 107 390 31 66 88 160 133 220 42 58 110 168 150 245 97 185 483 881 735 1325 270 476 402 734 549 1078 68 158 235 546 370 862 274 636 588 1447 821 2120 76 217 187 528 247 690 104 282 117 326 299 1025 105 402 264 1029 354 1395 90 366 197 800 238 965 69 281 77 322 118 652 24 193 40 355 37 359 -4 4 -66 17 -137 30 -72 13 -149 33 -173 45 -24 12 -686 390 -1473 839 -786 449 -1551 884 -1700 965 -148 82 -459 263 -690 403 -231 140 -1437 849 -2680 1575 l-2260 1320 -1060 572 c-583 315 -1139 614 -1235 665 -96 52 -931 517 -1855 1035 -924 518 -1733 970 -1799 1004 -167 89 -320 189 -1756 1145 l-1275 849 -2195 1360 c-1207 748 -2760 1701 -3450 2117 -1273 768 -2202 1339 -3574 2198 -418 262 -769 477 -780 478 -12 2 -96 -38 -201 -96z" fill="#b13967"/>
<path d="M53042 49435 c-22 -46 -56 -214 -55 -275 1 -62 28 -107 81 -134 87 -44 87 -44 127 18 50 79 49 129 -11 302 l-47 134 -36 0 c-34 0 -39 -4 -59 -45z" fill="#b13967"/>
<path d="M53001 47266 c-16 -25 -21 -50 -21 -99 0 -50 -7 -81 -31 -138 l-31 -72 22 -78 22 -78 42 -7 c22 -3 53 -12 67 -20 24 -12 28 -11 58 19 26 28 31 40 31 82 0 28 5 87 11 132 l12 83 -39 91 c-39 92 -47 101 -96 113 -22 5 -30 1 -47 -28z" fill="#b13967"/>
<path d="M51690 40425 c-19 -46 -20 -59 -10 -89 6 -19 18 -40 26 -46 8 -7 55 -97 105 -200 l91 -188 112 -74 111 -74 65 11 65 10 14 55 c15 63 7 98 -72 304 l-42 109 -160 105 c-152 100 -177 112 -252 126 -30 5 -32 3 -53 -49z" fill="#b13967"/>
<path d="M51179 38967 c-82 -32 -89 -40 -77 -88 7 -27 7 -48 1 -62 -7 -15 -6 -33 2 -57 10 -30 18 -36 61 -47 79 -20 148 -16 258 18 68 21 117 43 149 67 44 34 47 39 47 82 0 46 -1 47 -47 68 -102 46 -299 56 -394 19z" fill="#b13967"/>
<path d="M52363 38658 c-82 -84 -160 -216 -239 -407 -62 -146 -67 -167 -95 -336 -22 -142 -43 -225 -95 -392 l-67 -211 -126 -93 -125 -93 -111 -18 c-153 -24 -151 -23 -185 -74 -28 -39 -31 -52 -28 -97 5 -60 55 -232 98 -336 28 -70 29 -75 19 -154 -13 -109 -61 -267 -116 -384 -34 -74 -68 -124 -153 -225 -60 -72 -136 -175 -169 -229 l-61 -99 0 -101 c0 -55 -5 -132 -12 -171 l-11 -70 -63 -42 c-59 -38 -68 -49 -132 -166 -38 -69 -87 -172 -108 -230 -21 -58 -58 -139 -81 -180 -36 -64 -54 -83 -120 -130 -266 -189 -370 -309 -424 -490 -30 -102 -34 -109 -159 -275 -155 -205 -200 -296 -235 -465 -12 -63 -26 -140 -30 -170 -31 -238 -84 -386 -208 -576 -36 -55 -100 -170 -142 -254 -42 -84 -116 -212 -164 -284 -48 -72 -135 -223 -193 -336 -116 -226 -201 -366 -290 -479 -62 -79 -68 -95 -103 -266 -13 -66 -34 -134 -53 -171 -29 -57 -34 -62 -99 -89 -115 -48 -216 -107 -271 -159 -77 -73 -184 -280 -269 -520 -19 -55 -54 -138 -78 -185 -38 -74 -58 -99 -142 -177 -54 -50 -119 -103 -145 -118 -47 -28 -48 -29 -48 -79 0 -78 -24 -215 -66 -382 -33 -134 -43 -159 -92 -238 -73 -117 -142 -164 -279 -192 -120 -24 -136 -40 -152 -148 -6 -43 -11 -137 -11 -210 -1 -175 -12 -257 -50 -347 -27 -64 -46 -90 -126 -170 l-94 -95 0 -88 c0 -117 32 -185 96 -203 34 -9 138 67 221 161 62 70 80 100 129 211 30 71 84 176 119 234 34 58 91 166 126 240 34 74 75 151 89 170 81 103 179 258 232 364 97 193 201 365 305 503 54 71 151 220 217 331 113 192 124 207 222 302 97 93 109 109 171 227 37 71 90 162 119 203 28 41 85 145 127 231 41 87 121 231 178 320 106 170 239 443 349 719 60 151 127 259 295 476 137 177 284 398 382 574 74 133 82 152 92 227 10 80 13 87 93 205 103 154 289 463 381 633 110 204 274 476 404 671 111 167 123 191 188 359 37 99 112 281 166 405 68 156 111 274 143 386 32 114 78 236 156 420 113 264 204 510 286 779 49 160 117 296 257 512 42 65 73 127 86 171 15 49 43 102 95 178 127 188 177 281 232 437 58 161 64 193 88 490 l15 178 -45 74 c-25 41 -46 75 -48 75 -1 0 -29 -28 -63 -62z" fill="#b13967"/>
<path d="M50817 36259 c-24 -13 -42 -31 -49 -50 -5 -16 -19 -34 -30 -40 -18 -10 -20 -19 -16 -94 3 -92 10 -105 84 -156 37 -25 44 -27 83 -17 29 7 52 23 76 51 34 40 35 43 35 128 0 48 -4 99 -9 112 -9 24 -100 87 -124 87 -6 -1 -29 -10 -50 -21z" fill="#b13967"/>
<path d="M49180 33905 c-19 -14 -38 -32 -43 -40 -4 -8 -31 -27 -60 -41 -29 -14 -93 -57 -144 -95 l-91 -70 -12 -68 c-14 -82 0 -176 32 -226 20 -30 28 -33 101 -42 79 -11 79 -11 133 20 53 31 56 34 76 102 24 82 74 140 176 207 l62 40 0 61 c0 87 -17 133 -57 157 -49 29 -127 26 -173 -5z" fill="#b13967"/>
<path d="M48439 32876 c-19 -13 -47 -42 -62 -64 -14 -22 -35 -43 -47 -47 -21 -7 -60 -72 -60 -101 0 -10 8 -42 17 -72 14 -44 24 -57 50 -70 29 -14 40 -14 95 -1 l62 14 37 68 c20 38 57 90 82 115 58 59 80 131 52 162 -15 17 -31 20 -104 20 -75 0 -91 -3 -122 -24z" fill="#b13967"/>
<path d="M48015 31398 c-34 -6 -60 -19 -82 -41 -31 -29 -33 -35 -33 -99 0 -67 1 -68 26 -68 14 0 38 -9 53 -19 14 -10 61 -24 104 -31 l77 -11 50 41 c49 41 50 43 50 97 0 48 -4 60 -36 99 -36 44 -37 44 -98 43 -33 -1 -83 -5 -111 -11z" fill="#b13967"/>
<path d="M47049 30625 c-84 -14 -125 -43 -140 -98 -6 -23 -20 -52 -31 -64 -30 -33 -17 -96 31 -140 58 -55 72 -61 157 -68 l81 -7 31 39 c21 27 38 67 53 127 l22 87 -23 48 c-18 40 -30 51 -68 67 -42 18 -55 19 -113 9z" fill="#b13967"/>
<path d="M46335 29258 c-27 -16 -52 -35 -54 -40 -2 -5 -16 -24 -32 -42 -15 -18 -33 -52 -39 -77 -10 -39 -9 -52 10 -99 32 -82 70 -116 138 -125 30 -4 61 -9 69 -12 9 -3 22 14 38 53 14 33 39 85 55 117 47 91 35 162 -31 193 -21 9 -48 27 -60 40 -28 30 -33 29 -94 -8z" fill="#b13967"/>
<path d="M45060 29075 c-6 -15 -10 -87 -10 -161 0 -215 13 -232 208 -264 l133 -22 41 28 c45 31 52 46 63 120 6 51 6 52 -28 73 -36 22 -147 136 -147 150 0 17 -82 62 -138 75 -118 29 -111 29 -122 1z" fill="#b13967"/>
<path d="M45998 27057 c-44 -20 -126 -104 -133 -137 -6 -25 -1 -39 27 -75 32 -43 35 -44 86 -45 62 0 83 9 135 58 41 40 44 59 25 141 -11 49 -12 50 -60 61 -27 5 -50 10 -51 10 -1 -1 -14 -6 -29 -13z" fill="#b13967"/>
<path d="M44205 25740 c-154 -35 -294 -40 -592 -19 l-273 19 -87 -44 c-78 -39 -91 -49 -109 -88 l-22 -43 44 -60 43 -60 -26 -27 c-25 -26 -32 -28 -115 -28 -88 0 -90 1 -150 41 l-60 41 -26 -25 c-23 -23 -24 -29 -14 -67 7 -29 7 -61 0 -106 -18 -107 8 -180 157 -449 124 -224 155 -364 155 -704 0 -198 -24 -309 -102 -468 -74 -151 -119 -194 -260 -252 -51 -21 -124 -55 -163 -76 l-70 -39 -110 -184 c-60 -101 -120 -212 -132 -247 l-21 -63 111 -32 c136 -39 204 -78 240 -135 15 -23 27 -47 27 -52 0 -14 -65 -58 -120 -81 -25 -10 -94 -36 -155 -56 -81 -27 -135 -54 -203 -99 l-93 -62 -103 -195 -103 -195 -84 -63 -84 -64 -64 7 c-36 4 -69 9 -75 12 -17 7 -94 107 -112 147 -12 23 -40 50 -83 79 -114 76 -105 74 -183 36 -66 -32 -68 -34 -68 -71 0 -24 -11 -58 -30 -91 -35 -62 -37 -96 -16 -232 18 -112 40 -178 80 -233 44 -63 214 -187 293 -213 63 -21 64 -22 97 -87 18 -37 41 -105 51 -152 9 -47 19 -88 21 -92 7 -12 98 36 155 81 30 24 83 58 119 76 36 18 179 103 318 188 208 127 278 176 401 280 153 130 294 221 773 502 260 152 375 255 573 508 102 132 182 249 265 388 120 202 160 290 244 539 l42 125 -20 129 -21 128 -55 43 c-50 39 -56 47 -67 101 -7 33 -12 109 -13 171 l0 111 57 36 c76 48 140 49 241 6 67 -28 79 -30 202 -30 129 0 133 1 206 35 50 23 99 56 147 101 l72 66 12 97 c6 53 12 138 12 189 1 67 9 126 30 210 25 97 59 348 49 357 -2 2 -42 6 -90 10 l-87 7 -34 -74 -34 -74 -82 -18 c-109 -23 -129 -17 -183 52 -87 113 -138 232 -174 412 -9 47 -22 90 -28 97 -13 13 -233 43 -309 42 -29 0 -88 -9 -132 -19z" fill="#b13967"/>
<path d="M40530 23472 c-14 -10 -48 -28 -77 -40 -37 -14 -93 -57 -187 -142 -75 -66 -138 -126 -142 -131 -3 -5 -3 -33 1 -60 6 -40 14 -57 41 -81 34 -31 34 -32 34 -119 0 -99 -12 -138 -72 -237 -58 -95 -133 -249 -157 -324 -21 -62 -22 -74 -11 -140 9 -61 17 -80 49 -118 l38 -45 81 -3 81 -3 123 89 c105 76 136 93 213 116 50 16 135 52 190 82 l100 55 21 77 c19 68 20 86 11 155 -10 77 -11 78 -63 123 -29 24 -78 56 -108 70 -55 25 -56 26 -56 69 0 23 9 87 21 141 11 55 26 158 33 229 l13 130 -41 60 c-36 52 -46 60 -76 62 -21 2 -45 -4 -60 -15z" fill="#b13967"/>
<path d="M41123 22998 c-38 -8 -43 -13 -49 -46 -4 -20 -8 -62 -8 -92 -1 -61 44 -273 78 -365 l22 -59 74 -23 c41 -13 78 -23 81 -23 4 0 19 19 35 43 31 45 38 82 50 279 l6 106 -35 59 c-44 72 -57 84 -126 111 -58 24 -65 24 -128 10z" fill="#b13967"/>
<path d="M36924 18316 c-39 -30 -87 -76 -106 -102 -20 -27 -53 -65 -73 -84 -53 -50 -137 -165 -174 -237 -29 -58 -31 -70 -31 -166 0 -113 2 -117 74 -194 27 -30 35 -33 87 -33 57 0 58 0 109 58 35 39 79 111 140 231 83 163 91 185 120 315 16 78 30 146 30 153 0 17 -79 113 -93 112 -6 0 -44 -24 -83 -53z" fill="#b13967"/>
</g>
</svg>